<?xml version="1.0" encoding="utf-8"?>
<!-- Generator: Adobe Illustrator 16.0.4, SVG Export Plug-In . SVG Version: 6.00 Build 0)  -->
<!DOCTYPE svg PUBLIC "-//W3C//DTD SVG 1.1//EN" "http://www.w3.org/Graphics/SVG/1.1/DTD/svg11.dtd">
<svg version="1.1" id="Layer_1" xmlns="http://www.w3.org/2000/svg" xmlns:xlink="http://www.w3.org/1999/xlink" x="0px" y="0px"
	 width="32px" height="32px" viewBox="0 0 32 32" enable-background="new 0 0 32 32" xml:space="preserve">
<path fill="#5FCF80" d="M15.073,3.955c0.51-1.569,1.344-1.569,1.854,0l1.687,5.192C19.124,10.716,20.891,12,22.541,12H28
	c1.65,0,1.911,0.798,0.581,1.774l-4.433,3.25c-1.33,0.976-2.003,3.059-1.494,4.628l1.691,5.223c0.509,1.569-0.168,2.062-1.504,1.093
	l-4.413-3.198c-1.336-0.969-3.521-0.967-4.855,0.004l-4.418,3.214c-1.334,0.971-2.011,0.48-1.504-1.09l1.697-5.249
	c0.507-1.57-0.167-3.652-1.498-4.628l-4.431-3.247C2.088,12.798,2.35,12,4,12h5.459c1.65,0,3.417-1.284,3.927-2.853L15.073,3.955z"
	/>
</svg>
